<svg width="24" height="24" viewBox="0 0 24 24" fill="none" xmlns="http://www.w3.org/2000/svg">
<path d="M20.25 7.5C20.25 7.91421 20.5858 8.25 21 8.25C21.4142 8.25 21.75 7.91421 21.75 7.5H20.25ZM16.5 2.25C16.0858 2.25 15.75 2.58579 15.75 3C15.75 3.41421 16.0858 3.75 16.5 3.75V2.25ZM7.5 3.75C7.91421 3.75 8.25 3.41421 8.25 3C8.25 2.58579 7.91421 2.25 7.5 2.25V3.75ZM2.25 7.5C2.25 7.91421 2.58579 8.25 3 8.25C3.41421 8.25 3.75 7.91421 3.75 7.5H2.25ZM6.6329 11.4847C6.25438 11.6529 6.08391 12.0961 6.25214 12.4746C6.42037 12.8532 6.86359 13.0236 7.2421 12.8554L6.6329 11.4847ZM7.88785 11.7477L7.58324 11.0623L7.88785 11.7477ZM16.1122 11.7477L15.8075 12.433L16.1122 11.7477ZM16.7579 12.8554C17.1364 13.0236 17.5796 12.8532 17.7479 12.4746C17.9161 12.0961 17.7456 11.6529 17.3671 11.4847L16.7579 12.8554ZM15.5765 20.5941L15.7239 21.3295L15.5765 20.5941ZM15.0158 20.7065L14.8684 19.9712H14.8684L15.0158 20.7065ZM9.15004 20.717L9.00526 21.4529L9.15004 20.717ZM8.42763 20.5748L8.57242 19.8389L8.42763 20.5748ZM3.75 14.1448C3.75 13.7306 3.41421 13.3948 3 13.3948C2.58579 13.3948 2.25 13.7306 2.25 14.1448H3.75ZM21.75 14.1448C21.75 13.7306 21.4142 13.3948 21 13.3948C20.5858 13.3948 20.25 13.7306 20.25 14.1448H21.75ZM21.75 7.5C21.75 4.6005 19.3995 2.25 16.5 2.25V3.75C18.5711 3.75 20.25 5.42893 20.25 7.5H21.75ZM7.5 2.25C4.60051 2.25 2.25 4.6005 2.25 7.5H3.75C3.75 5.42893 5.42893 3.75 7.5 3.75V2.25ZM7.2421 12.8554L8.19245 12.433L7.58324 11.0623L6.6329 11.4847L7.2421 12.8554ZM15.8075 12.433L16.7579 12.8554L17.3671 11.4847L16.4168 11.0623L15.8075 12.433ZM8.19245 12.433C10.6165 11.3557 13.3835 11.3557 15.8075 12.433L16.4168 11.0623C13.6049 9.81257 10.3951 9.81257 7.58324 11.0623L8.19245 12.433ZM15.429 19.8588L14.8684 19.9712L15.1632 21.4419L15.7239 21.3295L15.429 19.8588ZM9.29483 19.9811L8.57242 19.8389L8.28285 21.3107L9.00526 21.4529L9.29483 19.9811ZM14.8684 19.9712C13.0304 20.3396 11.1342 20.343 9.29483 19.9811L9.00526 21.4529C11.0376 21.8527 13.1324 21.849 15.1632 21.4419L14.8684 19.9712ZM2.25 14.1448C2.25 17.6397 4.78939 20.6234 8.28285 21.3107L8.57242 19.8389C5.7495 19.2835 3.75 16.8901 3.75 14.1448H2.25ZM20.25 14.1448C20.25 16.8938 18.2534 19.2926 15.429 19.8588L15.7239 21.3295C19.2165 20.6294 21.75 17.6413 21.75 14.1448H20.25Z" fill="#334155"/>
</svg>
