<svg width="24" height="24" viewBox="0 0 24 24" fill="none" xmlns="http://www.w3.org/2000/svg">
<path d="M20.4445 6.88859C18.7779 7.4441 16.5559 5.22205 17.1114 3.55551M16.9766 3.6903L13.3862 7.28073C11.8253 8.84163 10.718 10.7974 10.1826 12.9389L10.0091 13.6329C9.95503 13.8491 10.1509 14.045 10.3671 13.9909L11.0611 13.8174C13.2026 13.282 15.1584 12.1747 16.7193 10.6138L20.3097 7.02338C20.7517 6.58139 21 5.98192 21 5.35684C21 4.05519 19.9448 3 18.6432 3C18.0181 3 17.4186 3.24831 16.9766 3.6903Z" stroke="#334155" stroke-width="1.5"/>
<path d="M12 3C10.9767 3 9.95334 3.11763 8.95043 3.35288C6.17301 4.00437 4.00437 6.17301 3.35288 8.95043C2.88237 10.9563 2.88237 13.0437 3.35288 15.0496C4.00437 17.827 6.17301 19.9956 8.95044 20.6471C10.9563 21.1176 13.0437 21.1176 15.0496 20.6471C17.827 19.9956 19.9956 17.827 20.6471 15.0496C20.8824 14.0466 21 13.0233 21 12" stroke="#334155" stroke-width="1.5" stroke-linecap="round"/>
</svg>
